<svg version="1.1" id="Layer_1" xmlns="http://www.w3.org/2000/svg" xmlns:xlink="http://www.w3.org/1999/xlink" x="0px" y="0px"
	 width="100%" viewBox="0 0 2069 2069" enable-background="new 0 0 2069 2069" xml:space="preserve">
<path fill="#000000" opacity="1.000000" stroke="none" 
	d="
M958.000000,2072.000000 
	C638.704956,2072.000000 320.409943,2072.000000 2.057463,2072.000000 
	C2.057463,1382.121338 2.057463,692.242676 2.057463,2.182017 
	C691.795593,2.182017 1381.591309,2.182017 2071.693359,2.182017 
	C2071.693359,691.999878 2071.693359,1381.999878 2071.693359,2072.000000 
	C1700.908203,2072.000000 1329.954102,2072.000000 958.000000,2072.000000 
z"/>
<path fill="#E3B05B" opacity="1.000000" stroke="none" 
	d="
M1180.082520,1386.152100 
	C1175.324829,1390.869385 1171.067383,1395.091675 1166.770508,1399.273438 
	C1160.852539,1405.032593 1160.801758,1405.057617 1154.544922,1398.817017 
	C1138.025757,1382.340698 1121.542603,1365.828369 1105.045410,1349.330078 
	C1103.160034,1347.444580 1101.187134,1345.637329 1099.409424,1343.655151 
	C1095.213135,1338.976440 1095.120728,1337.433960 1099.622314,1332.768799 
	C1106.795776,1325.334595 1114.304077,1318.222900 1121.452271,1310.765381 
	C1124.312256,1307.781616 1126.295166,1308.410767 1128.796631,1311.051514 
	C1133.600098,1316.122314 1138.607788,1320.999023 1143.497559,1325.989014 
	C1146.129150,1328.674438 1148.544678,1329.983032 1151.826904,1326.563965 
	C1158.980347,1319.112061 1166.254639,1311.762939 1173.755005,1304.662842 
	C1176.979248,1301.610718 1175.496460,1299.404663 1173.306152,1297.189941 
	C1167.243042,1291.059448 1161.046509,1285.061035 1154.516724,1278.630127 
	C1160.861938,1270.554443 1168.417114,1264.037109 1175.432007,1257.036255 
	C1178.762451,1253.712524 1181.974854,1255.122192 1184.941284,1258.132812 
	C1193.128418,1266.442139 1201.408813,1274.659790 1209.654663,1282.911255 
	C1211.303589,1284.561279 1212.980591,1286.183350 1214.614014,1287.848511 
	C1217.142944,1290.426758 1219.522339,1291.159302 1221.969604,1287.663330 
	C1222.908936,1286.321533 1224.164917,1285.155029 1225.437012,1284.102173 
	C1228.332764,1281.705688 1228.549316,1280.151978 1225.445190,1277.099854 
	C1202.488892,1254.528076 1179.828613,1231.655273 1157.072510,1208.879883 
	C1153.083130,1204.887207 1148.854126,1201.104980 1145.157227,1196.858521 
	C1142.347900,1193.631836 1140.146729,1193.591187 1136.742188,1196.026245 
	C1128.838501,1201.679199 1126.779297,1201.369507 1119.912476,1194.500977 
	C1113.552612,1188.139771 1107.261841,1181.709229 1100.971069,1175.279419 
	C1094.126099,1168.283081 1094.059082,1167.075317 1099.692749,1159.399780 
	C1100.674072,1158.062744 1101.492798,1156.606445 1102.941650,1154.335083 
	C1089.350464,1140.943604 1075.637207,1127.489258 1061.989624,1113.968384 
	C1048.782227,1100.883545 1035.480469,1087.886475 1022.585449,1074.499146 
	C1019.313171,1071.101929 1017.682495,1071.456177 1014.700073,1074.458740 
	C989.334778,1099.996460 963.882751,1125.448730 938.350098,1150.819336 
	C934.967834,1154.180054 933.832092,1156.593994 937.960266,1160.460815 
	C943.241394,1165.407593 943.185181,1167.266235 938.440735,1172.781128 
	C930.872742,1181.577881 922.523499,1189.637817 913.882202,1197.383545 
	C909.803467,1201.039551 905.292358,1201.628662 901.488831,1197.509521 
	C897.342346,1193.018921 894.669373,1194.449707 891.002930,1198.158813 
	C868.743347,1220.677368 846.302673,1243.016846 823.878967,1265.372681 
	C820.585449,1268.656128 817.091736,1271.742065 813.635376,1274.858154 
	C808.207703,1279.751465 808.014709,1280.765747 811.932373,1285.105103 
	C817.393738,1291.154297 818.739502,1291.401855 823.876099,1286.375366 
	C832.689575,1277.750610 841.312439,1268.931396 850.083374,1260.262573 
	C856.868958,1253.556152 858.648315,1253.651123 865.462341,1260.591797 
	C869.424133,1264.627319 873.405334,1268.644043 877.406860,1272.639893 
	C882.970764,1278.195801 882.988342,1278.190063 877.187561,1284.104004 
	C871.829041,1289.566895 866.456116,1295.015747 860.158752,1301.417236 
	C868.886353,1310.114868 877.705200,1318.939575 886.572449,1327.715332 
	C888.865601,1329.984741 890.687805,1328.539917 892.454102,1326.766357 
	C897.619446,1321.580078 902.970947,1316.569458 907.954895,1311.215698 
	C910.874695,1308.079224 912.941345,1307.959351 915.986572,1311.145020 
	C922.416260,1317.871460 929.264221,1324.195801 935.839661,1330.785889 
	C941.927429,1336.887085 941.943665,1339.494751 935.719299,1345.747925 
	C921.861450,1359.669678 907.890808,1373.479126 893.987427,1387.355591 
	C889.273987,1392.059937 884.558777,1396.765869 879.973633,1401.593628 
	C877.674011,1404.015015 875.548523,1404.211182 873.181213,1401.880737 
	C866.548645,1395.351562 859.934326,1388.803711 853.272400,1382.304565 
	C851.446960,1380.523682 851.678589,1378.867920 853.252441,1377.150879 
	C853.927734,1376.414062 854.644714,1375.715576 855.325439,1374.983643 
	C864.397461,1365.228760 864.399658,1365.224976 854.693604,1355.506470 
	C849.041016,1349.846680 843.301941,1344.270752 837.752991,1338.511475 
	C835.377686,1336.046021 833.545349,1336.020630 831.140320,1338.473633 
	C816.026611,1353.888794 800.076294,1368.494629 786.428650,1384.075073 
	C796.376892,1394.123535 805.954712,1403.797852 815.837952,1413.780640 
	C819.790344,1411.379761 822.834473,1407.343262 826.366638,1403.895630 
	C828.809753,1401.510986 830.717590,1401.508545 833.093628,1403.913940 
	C839.172180,1410.067505 845.241089,1416.243774 851.595276,1422.105835 
	C854.516113,1424.800659 854.594543,1426.717896 851.824341,1429.458252 
	C842.830505,1438.355347 834.007202,1447.424561 825.066895,1456.376099 
	C814.713928,1466.741943 804.355042,1477.102905 793.901489,1487.366943 
	C788.882080,1492.295166 787.646851,1492.195801 782.509094,1487.186768 
	C775.132568,1479.995239 767.874084,1472.680298 760.391479,1465.601685 
	C757.906311,1463.250610 757.605957,1461.516235 760.149353,1459.067627 
	C765.430664,1453.983154 770.497131,1448.676392 775.737427,1443.548462 
	C777.958740,1441.374756 778.847717,1439.551758 776.155518,1436.925903 
	C767.618042,1428.598877 759.249390,1420.098633 750.223083,1411.072998 
	C743.808105,1417.487427 737.871765,1423.245361 732.155090,1429.213989 
	C729.266968,1432.229370 727.218750,1432.673218 724.125671,1429.168701 
	C718.851807,1423.193237 713.248962,1417.449585 707.306335,1412.143921 
	C703.402832,1408.658936 704.324707,1406.096680 707.341125,1403.073486 
	C716.992310,1393.400024 726.678040,1383.760498 736.257812,1374.016724 
	C741.277649,1368.911255 741.205322,1368.349731 736.606445,1363.588745 
	C731.789551,1358.602051 730.753235,1358.577881 725.546265,1363.760132 
	C714.443298,1374.810425 703.437256,1385.958496 692.288025,1396.961670 
	C685.506287,1403.654785 677.873291,1407.527344 667.994324,1403.823975 
	C665.750977,1402.982910 663.773499,1402.091309 662.067505,1400.408691 
	C657.333862,1395.739746 652.280396,1391.372070 647.791443,1386.483032 
	C639.971924,1377.966675 640.317871,1366.887085 649.076111,1357.920288 
	C667.409119,1339.151001 686.023560,1320.655884 704.579956,1302.105713 
	C752.961731,1253.739746 801.341125,1205.371338 849.843567,1157.126709 
	C853.424316,1153.564941 855.137878,1151.294922 850.670837,1146.931030 
	C846.203491,1142.566650 846.290283,1138.604736 850.584595,1133.881348 
	C857.969543,1125.758667 865.659241,1117.878540 873.653381,1110.355835 
	C879.539673,1104.816895 880.654358,1105.098877 887.469604,1109.511963 
	C893.398926,1113.351318 893.460632,1113.412964 898.887329,1108.006226 
	C923.590515,1083.393677 948.262207,1058.749634 972.928955,1034.100586 
	C977.089050,1029.943604 977.154602,1029.034790 972.615784,1024.447266 
	C961.877136,1013.593140 951.000305,1002.875854 940.192810,992.089722 
	C922.099121,974.031921 904.009033,955.970337 885.932251,937.895569 
	C880.098022,932.062012 880.119324,932.040710 873.754089,937.924377 
	C866.345398,944.772766 863.739441,945.018005 856.033997,938.066895 
	C849.360107,932.046448 843.041260,925.606384 836.875610,919.059692 
	C833.817871,915.812866 831.494934,915.352051 827.614624,918.000244 
	C810.239746,929.858459 791.418518,939.002380 771.447998,945.497620 
	C738.193604,956.313538 704.563232,960.090515 670.950989,947.232483 
	C632.326355,932.456970 610.160706,903.819031 602.015747,863.661804 
	C596.707825,837.491760 600.576233,811.979736 608.185303,787.034912 
	C610.384033,779.827087 609.735962,774.212402 606.741333,768.153259 
	C598.379028,751.233398 596.191101,733.092102 598.099976,714.766602 
	C601.667175,680.521240 617.823669,653.156372 646.538513,633.859253 
	C678.721558,612.231445 713.207397,609.779358 749.090576,623.235962 
	C754.384644,625.221252 758.557556,625.174866 764.015503,622.950134 
	C777.843384,617.313660 792.629089,614.799316 807.288818,611.946289 
	C825.667358,608.369629 843.943481,609.677429 861.613342,614.397339 
	C888.732666,621.641357 911.133057,636.293030 926.297302,660.832947 
	C947.283264,694.793945 948.100769,730.863464 938.689331,768.314392 
	C932.487183,792.994385 921.912354,815.636414 908.340637,837.021790 
	C903.882080,844.047302 904.147278,843.983032 910.356750,849.914062 
	C916.610718,855.887573 922.845520,861.930725 928.544800,868.421021 
	C934.017883,874.653809 933.544983,877.810059 927.700317,883.829468 
	C927.006226,884.544250 926.250183,885.206909 925.472290,885.830811 
	C921.867249,888.722168 921.614136,891.251526 925.287048,894.689514 
	C933.069580,901.974182 940.442749,909.696045 947.984253,917.238159 
	C969.194580,938.450378 990.389282,959.678223 1011.624329,980.865723 
	C1018.726135,987.951721 1018.836121,987.968018 1025.823120,981.035400 
	C1055.755737,951.335815 1085.648071,921.595825 1115.327148,892.097290 
	C1113.926758,887.153320 1109.780640,885.565796 1107.528687,882.360229 
	C1103.464600,876.574890 1103.185791,874.714661 1107.928467,869.445557 
	C1114.143921,862.540161 1120.629761,855.866821 1127.207886,849.302551 
	C1132.946167,843.576294 1133.115723,843.677124 1128.956665,837.270508 
	C1116.960205,818.790955 1107.247314,799.220032 1100.966431,778.060181 
	C1095.852051,760.830933 1091.820312,743.315918 1092.405884,725.228271 
	C1093.703979,685.126465 1108.198853,651.598267 1142.528931,628.624023 
	C1156.191406,619.480835 1171.643921,614.848755 1187.754639,612.033081 
	C1215.817993,607.128418 1242.590210,612.897156 1268.899414,621.810547 
	C1276.676270,624.445251 1283.305176,625.140137 1291.580322,622.104004 
	C1353.271606,599.469666 1415.959595,633.591980 1434.836548,693.206177 
	C1443.427490,720.336975 1440.532837,746.957581 1428.621948,772.564758 
	C1426.596191,776.920044 1426.584473,780.259766 1428.040894,784.741638 
	C1437.424683,813.617554 1441.390259,843.135010 1433.291992,872.867554 
	C1424.356323,905.674988 1404.604980,929.944153 1373.083496,944.153381 
	C1348.701538,955.144226 1323.653687,956.760315 1297.397583,952.913330 
	C1265.175537,948.192322 1236.427124,935.583740 1209.501709,918.071289 
	C1205.366821,915.382019 1202.908081,915.228760 1199.395752,919.045288 
	C1192.655640,926.369446 1185.377075,933.208008 1178.171387,940.090454 
	C1173.412231,944.636047 1171.622314,944.421936 1166.281860,940.747192 
	C1162.776978,938.335449 1160.736694,932.779480 1156.381714,933.222473 
	C1152.163208,933.651672 1150.406494,939.033997 1147.365356,942.049500 
	C1119.201904,969.975708 1091.194458,998.059387 1063.146729,1026.102539 
	C1062.239136,1027.010010 1061.387207,1027.973389 1061.234131,1028.136841 
	C1089.460205,1056.385254 1117.442383,1084.389648 1145.591187,1112.560913 
	C1145.989746,1112.225464 1146.956543,1111.356689 1147.979248,1110.559204 
	C1156.099243,1104.226807 1157.300537,1104.374268 1164.513428,1111.651245 
	C1170.834595,1118.028687 1177.297241,1124.266602 1183.717529,1130.545288 
	C1189.718506,1136.414062 1192.726685,1140.207642 1184.390137,1148.885132 
	C1183.754272,1149.546997 1183.375000,1150.455200 1182.894653,1151.219849 
	C1184.695068,1154.710938 1187.707520,1156.921387 1190.274902,1159.490967 
	C1253.411011,1222.680420 1316.580200,1285.836670 1379.741455,1349.000854 
	C1382.569214,1351.828613 1385.557617,1354.520508 1388.161621,1357.542480 
	C1396.524780,1367.247803 1396.765381,1377.419922 1388.415527,1387.148315 
	C1384.341187,1391.895508 1380.033447,1396.550293 1374.881958,1400.278076 
	C1365.640381,1406.965698 1357.184692,1407.150269 1348.659546,1399.769043 
	C1334.604980,1387.599976 1321.812500,1374.106812 1309.061523,1360.593140 
	C1308.388672,1359.880127 1307.565308,1359.309326 1306.834961,1358.691772 
	C1301.880737,1360.247559 1300.024536,1364.876831 1296.172607,1368.420166 
	C1299.566040,1373.656738 1304.253540,1377.343384 1308.324585,1381.524780 
	C1315.066284,1388.449097 1322.056030,1395.132324 1328.784546,1402.069092 
	C1333.677002,1407.112793 1333.663330,1407.747437 1328.972168,1412.640991 
	C1323.668579,1418.173584 1317.956665,1423.328979 1312.853882,1429.034424 
	C1309.805786,1432.442505 1307.641235,1432.241211 1304.764648,1429.127197 
	C1299.174316,1423.075928 1293.421753,1417.174438 1287.573975,1411.040649 
	C1278.490845,1420.065308 1270.385742,1428.425781 1261.907593,1436.389282 
	C1258.559570,1439.533813 1259.066040,1441.750000 1261.916260,1444.542603 
	C1267.809570,1450.316406 1273.619385,1456.175415 1279.071167,1461.608398 
	C1270.184326,1470.839844 1261.817017,1479.364502 1253.657593,1488.083984 
	C1250.034546,1491.955811 1246.991455,1491.305176 1243.609985,1487.912109 
	C1223.387817,1467.620972 1203.122070,1447.373169 1183.566528,1427.806885 
	C1192.017334,1419.367920 1200.175049,1411.221680 1208.919800,1402.489136 
	C1211.532593,1403.508423 1213.907593,1407.336792 1216.962524,1410.288574 
	C1219.828735,1413.057983 1221.940918,1413.990601 1225.193237,1410.605957 
	C1232.538818,1402.961426 1240.278687,1395.697144 1247.791260,1388.211060 
	C1250.471802,1385.540039 1251.098877,1383.357666 1247.645386,1380.054199 
	C1233.921143,1366.926147 1220.484009,1353.488892 1207.235596,1339.878662 
	C1203.586426,1336.129761 1201.204346,1335.971191 1197.641602,1339.781616 
	C1191.050293,1346.831055 1183.994019,1353.443115 1177.283813,1360.384521 
	C1172.468262,1365.365967 1172.510498,1365.539185 1177.556519,1370.730103 
	C1180.304077,1373.556519 1183.329834,1376.112549 1185.859985,1378.448730 
	C1184.786255,1382.273926 1182.071167,1383.470337 1180.082520,1386.152100 
z"/>
<path fill="#D9A857" opacity="1.000000" stroke="none" 
	d="
M1528.985352,1242.056519 
	C1530.640259,1256.309814 1531.722656,1270.521240 1532.274170,1284.753052 
	C1533.520386,1316.903320 1535.202148,1349.037476 1538.551514,1381.027466 
	C1540.616333,1400.749268 1544.094727,1420.297729 1549.472290,1439.502808 
	C1555.571411,1461.284424 1569.359741,1476.587891 1587.885864,1488.493042 
	C1602.526733,1497.901489 1618.642578,1502.798218 1635.798706,1503.200317 
	C1662.043701,1503.815552 1681.837036,1491.991699 1694.722900,1469.230957 
	C1705.324097,1450.505737 1705.865234,1430.648926 1698.270020,1410.895142 
	C1689.021729,1386.842285 1674.100708,1366.871826 1649.657593,1356.915405 
	C1630.121338,1348.957764 1610.387207,1349.593262 1594.330322,1365.854370 
	C1569.872925,1390.622925 1575.040405,1422.425903 1598.970459,1441.163818 
	C1606.038696,1446.698242 1614.625244,1448.581665 1623.258057,1443.412598 
	C1631.798218,1438.298950 1633.318970,1429.880737 1633.108521,1421.071289 
	C1632.932495,1413.707275 1633.593384,1412.651245 1640.889771,1413.442139 
	C1651.343628,1414.575439 1659.307739,1427.312988 1657.223389,1439.040527 
	C1654.177368,1456.178833 1633.768188,1471.657959 1612.611572,1462.826416 
	C1588.004761,1452.554810 1573.704468,1433.636719 1572.734253,1407.130127 
	C1572.140503,1390.902954 1576.138794,1374.283691 1587.803711,1361.820923 
	C1601.940796,1346.716675 1620.187500,1341.688477 1640.550293,1345.026855 
	C1655.956909,1347.552856 1668.123901,1356.125366 1678.891235,1366.848755 
	C1701.533569,1389.398560 1714.347046,1416.364014 1714.344604,1448.671753 
	C1714.341431,1488.788696 1680.177856,1517.539673 1643.910889,1518.209961 
	C1621.724487,1518.619995 1602.383301,1510.640137 1584.872681,1497.680664 
	C1561.986572,1480.743164 1548.779053,1457.522461 1541.220825,1430.494629 
	C1534.849609,1407.711548 1531.627197,1384.498047 1529.508423,1360.995361 
	C1526.123047,1323.443604 1528.271240,1285.840942 1527.691162,1247.360840 
	C1526.892334,1244.882935 1526.878174,1243.391724 1528.985352,1242.056519 
z"/>
<path fill="#D8A857" opacity="1.000000" stroke="none" 
	d="
M508.961914,1261.635498 
	C509.520172,1271.446167 509.609039,1280.796875 509.574524,1291.072021 
	C509.359314,1292.333374 509.267517,1292.670532 509.306427,1293.515015 
	C509.473236,1308.178223 509.509338,1322.334106 509.089630,1337.337158 
	C508.702026,1338.567139 508.770264,1338.949951 508.486145,1339.797607 
	C509.000854,1363.629761 505.384766,1386.537842 501.078613,1409.378662 
	C497.865417,1426.422241 493.463593,1443.261108 485.232483,1458.485962 
	C465.306427,1495.342773 435.064789,1518.092896 392.089478,1517.855469 
	C357.480072,1517.664307 328.424469,1493.270020 323.502991,1457.796143 
	C320.504333,1436.181641 325.411346,1416.370972 335.400543,1397.518677 
	C344.402863,1380.528809 356.296448,1365.885986 372.441833,1355.156128 
	C391.249664,1342.656982 411.063477,1340.504272 432.093719,1349.587402 
	C442.332794,1354.009888 450.360382,1360.678467 455.295471,1370.486572 
	C465.465332,1390.698364 468.939301,1411.661133 457.802582,1432.545898 
	C449.383759,1448.333496 436.571503,1459.748535 418.840607,1464.511230 
	C399.860321,1469.609497 379.549011,1453.832764 379.641907,1434.307251 
	C379.691681,1423.843384 386.295898,1415.392578 396.031830,1413.334595 
	C402.990082,1411.863770 404.744415,1413.070312 404.166199,1419.909058 
	C403.821503,1423.985962 404.067444,1427.846680 405.206970,1431.715210 
	C409.068848,1444.825684 422.673279,1450.305176 434.593567,1443.425781 
	C454.409454,1431.989990 467.871124,1402.076782 450.260559,1374.751099 
	C438.834351,1357.021606 421.399139,1350.192993 400.700012,1353.459473 
	C378.528534,1356.958252 363.636963,1370.288330 351.287872,1387.378296 
	C343.668579,1397.922852 338.034393,1409.588867 335.397827,1422.523193 
	C330.593262,1446.092773 336.773407,1466.370728 353.369293,1483.648315 
	C373.746460,1504.863037 398.733002,1507.208130 425.034271,1499.491455 
	C446.529785,1493.184937 464.319397,1480.468628 477.466553,1461.858765 
	C486.153534,1449.562378 488.973816,1435.160278 492.152283,1420.945679 
	C496.570679,1401.185547 498.599182,1381.064697 500.209778,1360.911499 
	C502.164429,1336.452881 503.738434,1311.980835 504.547394,1287.441040 
	C504.807678,1279.544678 505.278870,1271.569580 505.997284,1262.865234 
	C506.818848,1261.355469 507.567200,1261.049194 508.961914,1261.635498 
z"/>
<path fill="#D9A957" opacity="1.000000" stroke="none" 
	d="
M1516.944458,1181.916748 
	C1510.538818,1166.904053 1503.420776,1152.658569 1492.330566,1140.904175 
	C1471.033447,1118.331787 1445.069946,1107.514893 1413.706909,1110.124512 
	C1386.178711,1112.415283 1362.649780,1137.218750 1357.904297,1163.482910 
	C1354.020142,1184.979736 1360.323120,1204.045410 1371.990234,1221.796143 
	C1378.415771,1231.572021 1385.599976,1240.672363 1395.303833,1247.466675 
	C1411.662598,1258.920654 1429.236694,1263.723511 1448.983887,1257.634033 
	C1466.119873,1252.349609 1474.819214,1239.171143 1479.478149,1223.404053 
	C1485.204956,1204.022949 1478.608154,1187.572388 1464.044800,1174.087158 
	C1456.720703,1167.305176 1448.607788,1163.753174 1438.652344,1168.206665 
	C1428.941406,1172.550781 1427.498779,1181.443726 1426.477417,1190.499146 
	C1426.296875,1192.099487 1426.699341,1193.813110 1427.073120,1195.418335 
	C1427.818604,1198.618652 1425.907715,1199.962769 1423.380127,1199.966309 
	C1416.784546,1199.975464 1411.034180,1197.702759 1407.192383,1192.058228 
	C1394.369141,1173.218872 1410.508423,1151.415405 1428.265625,1147.961426 
	C1439.192261,1145.836182 1448.813721,1149.324829 1457.594727,1154.979858 
	C1475.757080,1166.676392 1487.263672,1183.483398 1487.295776,1205.164429 
	C1487.326172,1225.755371 1482.308716,1245.671509 1463.452881,1258.319580 
	C1443.706177,1271.565063 1422.078857,1273.011963 1402.077026,1261.244385 
	C1365.246338,1239.576294 1345.995728,1206.137329 1345.817505,1163.220215 
	C1345.673584,1128.575195 1372.414917,1100.473022 1406.112915,1095.694092 
	C1434.994751,1091.598145 1459.054688,1101.860718 1480.441650,1119.573120 
	C1498.448853,1134.486328 1511.014038,1153.553589 1518.197266,1176.752686 
	C1519.083252,1179.078369 1519.149048,1180.569946 1516.944458,1181.916748 
z"/>
<path fill="#DAA958" opacity="1.000000" stroke="none" 
	d="
M519.541077,1174.669434 
	C533.968079,1134.895386 559.823242,1107.463379 600.529663,1096.983398 
	C630.766846,1089.198608 657.552124,1098.255859 677.145081,1122.598633 
	C690.509644,1139.203247 694.393372,1159.164551 690.417603,1180.786499 
	C685.056458,1209.942261 670.411926,1233.279053 648.666687,1252.669067 
	C627.001160,1271.988159 594.793884,1273.755615 571.227234,1256.967773 
	C561.505493,1250.042480 556.748352,1239.830078 553.345276,1228.893921 
	C546.832092,1207.963623 548.831543,1188.344360 562.450867,1170.440063 
	C570.356750,1160.046997 580.699341,1152.968750 592.739197,1148.816528 
	C614.390747,1141.349609 637.871765,1161.218628 633.762268,1183.030151 
	C632.087219,1191.921021 626.119934,1198.012085 617.472107,1199.658325 
	C611.195740,1200.853149 610.166077,1199.852783 610.151672,1193.376587 
	C610.142212,1189.134521 610.607605,1185.003418 608.833069,1180.684937 
	C602.798401,1165.998291 588.154602,1161.565918 575.863525,1171.642700 
	C547.230896,1195.117065 552.856201,1227.014771 570.355957,1246.083862 
	C586.031372,1263.165039 613.789917,1263.085571 632.057678,1253.426392 
	C651.672546,1243.054565 664.479004,1226.365479 673.473633,1206.526855 
	C680.393433,1191.264893 682.745422,1175.381226 678.048279,1159.041748 
	C669.429504,1129.061035 644.689697,1107.262451 609.768250,1109.761353 
	C575.866943,1112.187378 550.231079,1128.130737 532.695984,1157.423950 
	C528.924011,1163.725220 526.605957,1170.673096 522.249878,1177.373169 
	C519.830078,1178.220215 519.163269,1177.069214 519.541077,1174.669434 
z"/>
<path fill="#BA914B" opacity="1.000000" stroke="none" 
	d="
M519.510498,1174.562012 
	C520.369385,1175.070435 520.744690,1176.099609 521.490356,1177.534424 
	C522.304688,1180.345581 521.216675,1182.479980 520.538757,1184.641968 
	C512.806641,1209.301270 510.694061,1234.747192 509.625824,1261.233643 
	C508.723846,1262.110596 508.016388,1262.125732 506.778137,1262.117432 
	C506.787323,1232.543823 509.456848,1203.306519 519.510498,1174.562012 
z"/>
<path fill="#BA904B" opacity="1.000000" stroke="none" 
	d="
M1516.107178,1182.752686 
	C1516.729980,1180.865356 1517.328613,1179.787354 1518.100220,1178.104492 
	C1522.620972,1184.762817 1523.080444,1193.128662 1524.821655,1201.103882 
	C1527.636353,1213.995605 1529.085205,1227.093140 1529.847168,1241.174438 
	C1529.239868,1243.154053 1528.680786,1244.218872 1527.938232,1245.868896 
	C1524.853638,1242.990479 1526.246948,1238.788086 1525.958496,1234.945312 
	C1524.642700,1217.423584 1521.291260,1200.321533 1516.107178,1182.752686 
z"/>
<path fill="#BA914B" opacity="1.000000" stroke="none" 
	d="
M509.591888,1293.516968 
	C508.921997,1293.584839 508.787750,1293.053589 509.242767,1292.212524 
	C509.549591,1292.334717 509.648102,1292.673096 509.591888,1293.516968 
z"/>
<path fill="#BA914B" opacity="1.000000" stroke="none" 
	d="
M508.354950,1339.960815 
	C507.936005,1339.762085 507.944885,1339.265625 508.397095,1338.478638 
	C508.758911,1338.681763 508.739685,1339.173340 508.354950,1339.960815 
z"/>
<path fill="#010100" opacity="1.000000" stroke="none" 
	d="
M1164.420166,797.649231 
	C1149.947021,784.927673 1140.933350,769.864136 1137.584351,751.500671 
	C1129.549438,707.445557 1155.310547,666.722839 1197.945068,656.378479 
	C1226.095825,649.548279 1252.030396,655.191589 1273.441772,675.914978 
	C1277.119507,679.474426 1279.566772,679.241577 1283.518188,676.334167 
	C1297.163086,666.294434 1312.681030,662.216736 1329.548828,663.497803 
	C1359.060547,665.739258 1384.804321,689.205933 1390.301392,719.197510 
	C1393.896851,738.814758 1388.779053,756.030640 1377.588623,771.631714 
	C1374.733521,775.612061 1375.070679,777.614136 1377.614258,780.835938 
	C1392.571289,799.781067 1396.566528,821.482056 1392.302246,844.685242 
	C1386.030151,878.813354 1365.175537,900.908997 1332.111206,909.137939 
	C1288.552246,919.978760 1250.682007,897.412109 1234.958008,857.770630 
	C1231.184570,848.257324 1229.682739,838.019958 1230.185181,827.485596 
	C1230.711670,816.448486 1231.315186,817.111877 1219.964233,817.558350 
	C1204.507690,818.166260 1190.467285,813.918884 1177.026733,806.875854 
	C1172.582886,804.547302 1168.629150,801.519409 1164.420166,797.649231 
z"/>
<path fill="#010100" opacity="1.000000" stroke="none" 
	d="
M672.818237,893.230225 
	C658.467957,880.981995 649.092773,866.488403 645.475830,848.549622 
	C640.738831,825.055359 643.955750,803.009949 657.773071,782.993835 
	C662.404236,776.285034 662.432068,776.353027 657.945984,769.772217 
	C633.792847,734.341309 646.727539,685.182129 687.923889,668.283020 
	C710.580811,658.989014 733.021667,661.620911 753.197754,675.930359 
	C757.726807,679.142456 759.537781,679.249634 763.508850,675.491577 
	C793.712952,646.907898 843.762085,646.138184 874.834778,675.526306 
	C890.360596,690.210327 898.743347,708.088135 900.629578,729.840149 
	C903.611450,764.228333 882.381042,797.635437 853.381226,810.081421 
	C842.305664,814.834839 830.955627,817.995728 818.651245,817.537170 
	C806.366150,817.079224 805.997375,817.445984 806.441040,829.288757 
	C806.886047,841.166382 804.877197,852.539978 799.954529,863.162537 
	C787.427551,890.193909 762.936096,909.601685 729.990479,911.429443 
	C708.932129,912.597839 689.879517,907.156128 672.818237,893.230225 
z"/>
</svg>